# Blender v3.1.2 OBJ File: 'bougie__flamme_2.blend'
# www.blender.org
mtllib bougie__flamme_2.mtl
o Cube.001
v -0.345751 -0.500000 -0.077090
v -0.069853 -0.500000 -0.021910
v -0.345751 -0.278577 -0.077090
v -0.069853 -0.278577 -0.021910
v -0.345751 -0.500000 -0.297809
v -0.290572 -0.500000 -0.021910
v -0.345751 -0.278577 -0.297809
v -0.290572 -0.278577 -0.021910
v -0.069853 -0.500000 -0.352988
v -0.014673 -0.500000 -0.077090
v -0.014673 -0.278577 -0.077090
v -0.069853 -0.278577 -0.352988
v -0.290572 -0.500000 -0.352988
v -0.014673 -0.500000 -0.297809
v -0.290572 -0.278577 -0.352988
v -0.014673 -0.278577 -0.297809
v -0.069853 -0.278577 -0.297809
v -0.290572 -0.278577 -0.297809
v -0.290572 -0.500000 -0.297809
v -0.069853 -0.500000 -0.297809
v -0.290572 -0.278577 -0.077090
v -0.069853 -0.278577 -0.077090
v -0.290572 -0.500000 -0.077090
v -0.069853 -0.500000 -0.077090
v -0.069853 -0.323151 -0.297809
v -0.290572 -0.323151 -0.297809
v -0.290572 -0.323151 -0.077090
v -0.069853 -0.323151 -0.077090
v -0.161783 -0.323151 -0.205879
v -0.198642 -0.323151 -0.205879
v -0.198642 -0.323151 -0.169020
v -0.161783 -0.323151 -0.169020
v -0.161783 -0.269648 -0.205879
v -0.198642 -0.269648 -0.205879
v -0.198642 -0.269648 -0.169020
v -0.161783 -0.269648 -0.169020
v -0.153888 -0.233978 -0.230716
v -0.223479 -0.233978 -0.213773
v -0.206536 -0.233978 -0.144182
v -0.136945 -0.233978 -0.161125
v -0.174588 -0.206134 -0.251202
v -0.243965 -0.206134 -0.193074
v -0.185837 -0.206134 -0.123697
v -0.116460 -0.206134 -0.181825
v -0.196715 -0.168177 -0.240479
v -0.233242 -0.168177 -0.170947
v -0.163709 -0.168177 -0.134420
v -0.127183 -0.168177 -0.203952
v -0.195773 -0.115437 -0.205002
v -0.197765 -0.115437 -0.171889
v -0.164652 -0.115437 -0.169896
v -0.162659 -0.115437 -0.203010
v -0.180212 -0.045038 -0.187449
vt 0.123705 0.892789
vt 0.038024 0.892789
vt 0.038024 0.926367
vt 0.123705 0.926367
vt 0.123705 0.968594
vt 0.123705 0.960351
vt 0.038024 0.960351
vt 0.038024 0.968594
vt 0.188321 0.926367
vt 0.188321 0.892789
vt 0.167256 0.892789
vt 0.167256 0.926367
vt 0.123705 0.926570
vt 0.038024 0.926570
vt 0.038024 0.960149
vt 0.123705 0.960149
vt 0.124179 0.968594
vt 0.209860 0.968594
vt 0.209860 0.960351
vt 0.124179 0.960351
vt 0.209860 0.892789
vt 0.188795 0.892789
vt 0.188795 0.926367
vt 0.209860 0.926367
vt 0.038024 0.977039
vt 0.123705 0.977039
vt 0.123705 0.968797
vt 0.038024 0.968797
vt 0.231398 0.926367
vt 0.231398 0.892789
vt 0.210334 0.892789
vt 0.210334 0.926367
vt 0.124179 0.977039
vt 0.209860 0.977039
vt 0.209860 0.968797
vt 0.124179 0.968797
vt 0.166782 0.926367
vt 0.166782 0.892789
vt 0.124179 0.892789
vt 0.124179 0.926367
vt 0.123705 0.985484
vt 0.123705 0.977242
vt 0.038024 0.977242
vt 0.038024 0.985484
vt 0.231398 0.960149
vt 0.231398 0.926570
vt 0.210334 0.926570
vt 0.210334 0.960149
vt 0.124179 0.943258
vt 0.209860 0.943258
vt 0.209860 0.926570
vt 0.124179 0.926570
vt 0.252937 0.926367
vt 0.252937 0.892789
vt 0.231873 0.892789
vt 0.231873 0.926367
vt 0.209860 0.985484
vt 0.209860 0.977242
vt 0.124179 0.977242
vt 0.124179 0.985484
vt 0.231398 0.977039
vt 0.231398 0.960351
vt 0.210334 0.960351
vt 0.210334 0.977039
vt 0.231873 0.968594
vt 0.274476 0.968594
vt 0.274476 0.960351
vt 0.231873 0.960351
vt 0.252937 0.968797
vt 0.231873 0.968797
vt 0.231873 0.985484
vt 0.252937 0.985484
vt 0.080627 0.993930
vt 0.080627 0.985687
vt 0.038024 0.985687
vt 0.038024 0.993930
vt 0.252937 0.960149
vt 0.252937 0.926570
vt 0.231873 0.926570
vt 0.231873 0.960149
vt 0.209860 0.960149
vt 0.209860 0.943461
vt 0.124179 0.943461
vt 0.124179 0.960149
vt 0.274476 0.926367
vt 0.274476 0.892789
vt 0.253411 0.892789
vt 0.253411 0.926367
vt 0.369962 0.898232
vt 0.473842 0.898232
vt 0.430576 0.937450
vt 0.413228 0.937450
vt 0.081102 0.993930
vt 0.123705 0.993930
vt 0.123705 0.985687
vt 0.081102 0.985687
vt 0.274476 0.960149
vt 0.274476 0.926570
vt 0.253411 0.926570
vt 0.253411 0.960149
vt 0.124179 0.993930
vt 0.166782 0.993930
vt 0.166782 0.985687
vt 0.124179 0.985687
vt 0.630474 0.881695
vt 0.536193 0.881695
vt 0.536193 0.997211
vt 0.630474 0.997211
vt 0.473842 0.992393
vt 0.430576 0.953175
vt 0.369962 0.992393
vt 0.413228 0.953175
vt 0.845968 0.884864
vt 0.873835 0.883340
vt 0.887034 0.898820
vt 0.819438 0.900097
vt 0.654044 0.881695
vt 0.512623 0.881695
vt 0.512623 0.997211
vt 0.654044 0.997211
vt 0.536193 0.881695
vt 0.630474 0.881695
vt 0.630474 0.997211
vt 0.536193 0.997211
vt 0.512623 0.881695
vt 0.654044 0.881695
vt 0.654044 0.997211
vt 0.512623 0.997211
vt 0.763905 0.902105
vt 0.833902 0.900008
vt 0.867402 0.912636
vt 0.763224 0.912824
vt 0.789247 0.887664
vt 0.818845 0.885614
vt 0.705782 0.887138
vt 0.730698 0.885340
vt 0.741387 0.900527
vt 0.678671 0.902231
vt 0.908418 0.888583
vt 0.940354 0.887252
vt 0.957204 0.902787
vt 0.883369 0.903805
vt 0.672718 0.913662
vt 0.775608 0.913300
vt 0.785832 0.930299
vt 0.697915 0.930416
vt 0.990851 0.915670
vt 0.884762 0.915663
vt 0.921342 0.911693
vt 0.816275 0.911836
vt 0.842853 0.928804
vt 0.929075 0.928501
vt 0.899750 0.949528
vt 0.872475 0.950501
vt 0.994620 0.932314
vt 0.912895 0.932761
vt 0.872975 0.929760
vt 0.790202 0.929392
vt 0.875000 0.976676
vt 0.842321 0.951228
vt 0.817155 0.951683
vt 0.758864 0.951498
vt 0.729730 0.952259
vt 0.962242 0.953296
vt 0.938376 0.954412
vt 0.817708 0.978584
vt 0.734375 0.978618
vt 0.937500 0.980582
vn -1.0000 0.0000 0.0000
vn 0.0000 0.0000 -1.0000
vn 1.0000 0.0000 0.0000
vn 0.0000 0.0000 1.0000
vn 0.0000 1.0000 0.0000
vn 0.0000 -1.0000 0.0000
vn 0.1411 -0.4403 0.8867
vn 0.8309 -0.3288 -0.4489
vn 0.8867 -0.4403 -0.1411
vn -0.1411 -0.4403 -0.8867
vn -0.8867 -0.4403 0.1411
vn -0.7599 0.1586 -0.6304
vn -0.4489 -0.3288 -0.8309
vn -0.8309 -0.3288 0.4489
vn 0.4489 -0.3288 0.8309
vn 0.8575 0.4014 0.3218
vn -0.6304 0.1586 0.7599
vn 0.7599 0.1586 0.6304
vn 0.6304 0.1586 -0.7599
vn 0.9716 0.2293 0.0585
vn 0.3218 0.4014 -0.8575
vn -0.8575 0.4014 -0.3218
vn -0.3218 0.4014 0.8575
vn 0.0585 0.2293 -0.9716
vn -0.9716 0.2293 -0.0585
vn -0.0585 0.2293 0.9716
usemtl base
s off
f 1/1/1 3/2/1 7/3/1 5/4/1
f 17/5/2 16/6/2 14/7/2 20/8/2
f 5/9/2 7/10/2 18/11/2 19/12/2
f 14/13/3 16/14/3 11/15/3 10/16/3
f 3/17/4 1/18/4 23/19/4 21/20/4
f 24/21/4 10/22/4 11/23/4 22/24/4
f 22/25/1 17/26/1 25/27/1 28/28/1
f 7/29/5 3/30/5 21/31/5 18/32/5
f 17/33/5 22/34/5 11/35/5 16/36/5
f 2/37/4 4/38/4 8/39/4 6/40/4
f 18/41/1 15/42/1 13/43/1 19/44/1
f 6/45/1 8/46/1 21/47/1 23/48/1
f 13/49/2 15/50/2 12/51/2 9/52/2
f 4/53/3 2/54/3 24/55/3 22/56/3
f 20/57/3 9/58/3 12/59/3 17/60/3
f 13/61/6 9/62/6 20/63/6 19/64/6
f 2/65/6 6/66/6 23/67/6 24/68/6
f 21/69/5 8/70/5 4/71/5 22/72/5
f 17/73/5 12/74/5 15/75/5 18/76/5
f 1/77/6 5/78/6 19/79/6 23/80/6
f 24/81/6 23/82/6 19/83/6 20/84/6
f 14/85/6 10/86/6 24/87/6 20/88/6
f 27/89/5 28/90/5 32/91/5 31/92/5
f 17/93/4 18/94/4 26/95/4 25/96/4
f 18/97/3 21/98/3 27/99/3 26/100/3
f 21/101/2 22/102/2 28/103/2 27/104/2
f 29/105/2 30/106/2 34/107/2 33/108/2
f 28/90/5 25/109/5 29/110/5 32/91/5
f 25/109/5 26/111/5 30/112/5 29/110/5
f 26/111/5 27/89/5 31/92/5 30/112/5
f 35/113/7 36/114/7 40/115/7 39/116/7
f 30/117/1 31/118/1 35/119/1 34/120/1
f 31/121/4 32/122/4 36/123/4 35/124/4
f 32/125/3 29/126/3 33/127/3 36/128/3
f 40/129/8 37/130/8 41/131/8 44/132/8
f 36/133/9 33/134/9 37/130/9 40/129/9
f 33/135/10 34/136/10 38/137/10 37/138/10
f 34/139/11 35/140/11 39/141/11 38/142/11
f 41/143/12 42/144/12 46/145/12 45/146/12
f 37/138/13 38/137/13 42/144/13 41/143/13
f 38/142/14 39/141/14 43/147/14 42/148/14
f 39/116/15 40/115/15 44/149/15 43/150/15
f 47/151/16 48/152/16 52/153/16 51/154/16
f 42/148/17 43/147/17 47/155/17 46/156/17
f 43/150/18 44/149/18 48/152/18 47/151/18
f 44/132/19 41/131/19 45/157/19 48/158/19
f 51/154/20 52/153/20 53/159/20
f 48/158/21 45/157/21 49/160/21 52/161/21
f 45/146/22 46/145/22 50/162/22 49/163/22
f 46/156/23 47/155/23 51/164/23 50/165/23
f 52/161/24 49/160/24 53/166/24
f 49/163/25 50/162/25 53/167/25
f 50/165/26 51/164/26 53/168/26
o Cube.002
v 0.137871 -0.500000 0.196574
v 0.319861 -0.500000 0.232972
v 0.137871 -0.062072 0.196574
v 0.319861 -0.062072 0.232972
v 0.137871 -0.500000 0.050981
v 0.174269 -0.500000 0.232972
v 0.137871 -0.062072 0.050981
v 0.174269 -0.062072 0.232972
v 0.319861 -0.500000 0.014583
v 0.356260 -0.500000 0.196574
v 0.356260 -0.062072 0.196574
v 0.319861 -0.062072 0.014583
v 0.174269 -0.500000 0.014583
v 0.356260 -0.500000 0.050981
v 0.174269 -0.062072 0.014583
v 0.356260 -0.062072 0.050981
v 0.319861 -0.062072 0.050981
v 0.174269 -0.062072 0.050981
v 0.174269 -0.500000 0.050981
v 0.319861 -0.500000 0.050981
v 0.174269 -0.062072 0.196574
v 0.319861 -0.062072 0.196574
v 0.174269 -0.500000 0.196574
v 0.319861 -0.500000 0.196574
v 0.319861 -0.106647 0.050981
v 0.174269 -0.106647 0.050981
v 0.174269 -0.106647 0.196574
v 0.319861 -0.106647 0.196574
v 0.259222 -0.106647 0.111621
v 0.234909 -0.106647 0.111621
v 0.234909 -0.106647 0.135934
v 0.259222 -0.106647 0.135934
v 0.259222 -0.031448 0.111621
v 0.234909 -0.031448 0.111621
v 0.234909 -0.031448 0.135934
v 0.259222 -0.031448 0.135934
v 0.264429 -0.005663 0.095237
v 0.218525 -0.005663 0.106414
v 0.229701 -0.005663 0.152318
v 0.275605 -0.005663 0.141141
v 0.250775 0.014465 0.081725
v 0.205013 0.014465 0.120068
v 0.243355 0.014465 0.165830
v 0.289118 0.014465 0.127487
v 0.236180 0.041903 0.088798
v 0.212086 0.041903 0.134663
v 0.257951 0.041903 0.158757
v 0.282045 0.041903 0.112892
v 0.236801 0.080029 0.112199
v 0.235487 0.080029 0.134042
v 0.257329 0.080029 0.135356
v 0.258644 0.080029 0.113513
v 0.247065 0.130919 0.123778
vt 0.123705 0.892789
vt 0.038024 0.892789
vt 0.038024 0.926367
vt 0.123705 0.926367
vt 0.123705 0.968594
vt 0.123705 0.960351
vt 0.038024 0.960351
vt 0.038024 0.968594
vt 0.188321 0.926367
vt 0.188321 0.892789
vt 0.167256 0.892789
vt 0.167256 0.926367
vt 0.123705 0.926570
vt 0.038024 0.926570
vt 0.038024 0.960149
vt 0.123705 0.960149
vt 0.124179 0.968594
vt 0.209860 0.968594
vt 0.209860 0.960351
vt 0.124179 0.960351
vt 0.209860 0.892789
vt 0.188795 0.892789
vt 0.188795 0.926367
vt 0.209860 0.926367
vt 0.038024 0.977039
vt 0.123705 0.977039
vt 0.123705 0.968797
vt 0.038024 0.968797
vt 0.231398 0.926367
vt 0.231398 0.892789
vt 0.210334 0.892789
vt 0.210334 0.926367
vt 0.124179 0.977039
vt 0.209860 0.977039
vt 0.209860 0.968797
vt 0.124179 0.968797
vt 0.166782 0.926367
vt 0.166782 0.892789
vt 0.124179 0.892789
vt 0.124179 0.926367
vt 0.123705 0.985484
vt 0.123705 0.977242
vt 0.038024 0.977242
vt 0.038024 0.985484
vt 0.231398 0.960149
vt 0.231398 0.926570
vt 0.210334 0.926570
vt 0.210334 0.960149
vt 0.124179 0.943258
vt 0.209860 0.943258
vt 0.209860 0.926570
vt 0.124179 0.926570
vt 0.252937 0.926367
vt 0.252937 0.892789
vt 0.231873 0.892789
vt 0.231873 0.926367
vt 0.209860 0.985484
vt 0.209860 0.977242
vt 0.124179 0.977242
vt 0.124179 0.985484
vt 0.231398 0.977039
vt 0.231398 0.960351
vt 0.210334 0.960351
vt 0.210334 0.977039
vt 0.231873 0.968594
vt 0.274476 0.968594
vt 0.274476 0.960351
vt 0.231873 0.960351
vt 0.252937 0.968797
vt 0.231873 0.968797
vt 0.231873 0.985484
vt 0.252937 0.985484
vt 0.080627 0.993930
vt 0.080627 0.985687
vt 0.038024 0.985687
vt 0.038024 0.993930
vt 0.252937 0.960149
vt 0.252937 0.926570
vt 0.231873 0.926570
vt 0.231873 0.960149
vt 0.209860 0.960149
vt 0.209860 0.943461
vt 0.124179 0.943461
vt 0.124179 0.960149
vt 0.274476 0.926367
vt 0.274476 0.892789
vt 0.253411 0.892789
vt 0.253411 0.926367
vt 0.369962 0.898232
vt 0.473842 0.898232
vt 0.430576 0.937450
vt 0.413228 0.937450
vt 0.081102 0.993930
vt 0.123705 0.993930
vt 0.123705 0.985687
vt 0.081102 0.985687
vt 0.274476 0.960149
vt 0.274476 0.926570
vt 0.253411 0.926570
vt 0.253411 0.960149
vt 0.124179 0.993930
vt 0.166782 0.993930
vt 0.166782 0.985687
vt 0.124179 0.985687
vt 0.630474 0.881695
vt 0.536193 0.881695
vt 0.536193 0.997211
vt 0.630474 0.997211
vt 0.473842 0.992393
vt 0.430576 0.953175
vt 0.369962 0.992393
vt 0.413228 0.953175
vt 0.845968 0.884864
vt 0.873835 0.883340
vt 0.887034 0.898820
vt 0.819438 0.900097
vt 0.654044 0.881695
vt 0.512623 0.881695
vt 0.512623 0.997211
vt 0.654044 0.997211
vt 0.536193 0.881695
vt 0.630474 0.881695
vt 0.630474 0.997211
vt 0.536193 0.997211
vt 0.512623 0.881695
vt 0.654044 0.881695
vt 0.654044 0.997211
vt 0.512623 0.997211
vt 0.763905 0.902105
vt 0.833902 0.900008
vt 0.867402 0.912636
vt 0.763224 0.912824
vt 0.789247 0.887664
vt 0.818845 0.885614
vt 0.705782 0.887138
vt 0.730698 0.885340
vt 0.741387 0.900527
vt 0.678671 0.902231
vt 0.908418 0.888583
vt 0.940354 0.887252
vt 0.957204 0.902787
vt 0.883369 0.903805
vt 0.672718 0.913662
vt 0.775608 0.913300
vt 0.785832 0.930299
vt 0.697915 0.930416
vt 0.990851 0.915670
vt 0.884762 0.915663
vt 0.921342 0.911693
vt 0.816275 0.911836
vt 0.842853 0.928804
vt 0.929075 0.928501
vt 0.899750 0.949528
vt 0.872475 0.950501
vt 0.994620 0.932314
vt 0.912895 0.932761
vt 0.872975 0.929760
vt 0.790202 0.929392
vt 0.875000 0.976676
vt 0.842321 0.951228
vt 0.817155 0.951683
vt 0.758864 0.951498
vt 0.729730 0.952259
vt 0.962242 0.953296
vt 0.938376 0.954412
vt 0.817708 0.978584
vt 0.734375 0.978618
vt 0.937500 0.980582
vn -1.0000 0.0000 0.0000
vn 0.0000 0.0000 -1.0000
vn 1.0000 0.0000 0.0000
vn 0.0000 0.0000 1.0000
vn 0.0000 1.0000 0.0000
vn 0.0000 -1.0000 0.0000
vn 0.1435 -0.4085 0.9014
vn 0.8385 -0.3027 -0.4530
vn 0.9014 -0.4085 -0.1435
vn -0.1435 -0.4085 -0.9014
vn -0.9014 -0.4085 0.1435
vn -0.7615 0.1451 -0.6317
vn -0.4530 -0.3027 -0.8385
vn -0.8385 -0.3027 0.4530
vn 0.4530 -0.3027 0.8385
vn 0.8693 0.3713 0.3262
vn -0.6317 0.1451 0.7615
vn 0.7615 0.1451 0.6317
vn 0.6317 0.1451 -0.7615
vn 0.9759 0.2102 0.0587
vn 0.3262 0.3713 -0.8693
vn -0.8693 0.3713 -0.3262
vn -0.3262 0.3713 0.8693
vn 0.0587 0.2102 -0.9759
vn -0.9759 0.2102 -0.0587
vn -0.0587 0.2102 0.9759
usemtl base
s off
f 54/169/27 56/170/27 60/171/27 58/172/27
f 70/173/28 69/174/28 67/175/28 73/176/28
f 58/177/28 60/178/28 71/179/28 72/180/28
f 67/181/29 69/182/29 64/183/29 63/184/29
f 56/185/30 54/186/30 76/187/30 74/188/30
f 77/189/30 63/190/30 64/191/30 75/192/30
f 75/193/27 70/194/27 78/195/27 81/196/27
f 60/197/31 56/198/31 74/199/31 71/200/31
f 70/201/31 75/202/31 64/203/31 69/204/31
f 55/205/30 57/206/30 61/207/30 59/208/30
f 71/209/27 68/210/27 66/211/27 72/212/27
f 59/213/27 61/214/27 74/215/27 76/216/27
f 66/217/28 68/218/28 65/219/28 62/220/28
f 57/221/29 55/222/29 77/223/29 75/224/29
f 73/225/29 62/226/29 65/227/29 70/228/29
f 66/229/32 62/230/32 73/231/32 72/232/32
f 55/233/32 59/234/32 76/235/32 77/236/32
f 74/237/31 61/238/31 57/239/31 75/240/31
f 70/241/31 65/242/31 68/243/31 71/244/31
f 54/245/32 58/246/32 72/247/32 76/248/32
f 77/249/32 76/250/32 72/251/32 73/252/32
f 67/253/32 63/254/32 77/255/32 73/256/32
f 80/257/31 81/258/31 85/259/31 84/260/31
f 70/261/30 71/262/30 79/263/30 78/264/30
f 71/265/29 74/266/29 80/267/29 79/268/29
f 74/269/28 75/270/28 81/271/28 80/272/28
f 82/273/28 83/274/28 87/275/28 86/276/28
f 81/258/31 78/277/31 82/278/31 85/259/31
f 78/277/31 79/279/31 83/280/31 82/278/31
f 79/279/31 80/257/31 84/260/31 83/280/31
f 88/281/33 89/282/33 93/283/33 92/284/33
f 83/285/27 84/286/27 88/287/27 87/288/27
f 84/289/30 85/290/30 89/291/30 88/292/30
f 85/293/29 82/294/29 86/295/29 89/296/29
f 93/297/34 90/298/34 94/299/34 97/300/34
f 89/301/35 86/302/35 90/298/35 93/297/35
f 86/303/36 87/304/36 91/305/36 90/306/36
f 87/307/37 88/308/37 92/309/37 91/310/37
f 94/311/38 95/312/38 99/313/38 98/314/38
f 90/306/39 91/305/39 95/312/39 94/311/39
f 91/310/40 92/309/40 96/315/40 95/316/40
f 92/284/41 93/283/41 97/317/41 96/318/41
f 100/319/42 101/320/42 105/321/42 104/322/42
f 95/316/43 96/315/43 100/323/43 99/324/43
f 96/318/44 97/317/44 101/320/44 100/319/44
f 97/300/45 94/299/45 98/325/45 101/326/45
f 104/322/46 105/321/46 106/327/46
f 101/326/47 98/325/47 102/328/47 105/329/47
f 98/314/48 99/313/48 103/330/48 102/331/48
f 99/324/49 100/323/49 104/332/49 103/333/49
f 105/329/50 102/328/50 106/334/50
f 102/331/51 103/330/51 106/335/51
f 103/333/52 104/332/52 106/336/52
