mtllib minecraft_copper_golem.mtl
o polySurface1_texture_gol_0
usemtl texture_gol
v -0.00018864810045104985 0.04815432917726792 -0.0490188683043673
v -0.00018864810045104985 0.000184059921263309 -0.0490188683043673
v -0.07253841238010494 0.000184059921263309 -0.0490188683043673
v -0.07266791181263521 0.04815432917726792 -0.0490188683043673
v -0.00018864810045104985 0.04815432917726792 0.03203017163209232
v -0.00018864810045104985 0.04815432917726792 -0.0490188683043673
v -0.07266791181263521 0.04815432917726792 -0.0490188683043673
v -0.07266791181263521 0.04815432917726792 0.03203017163209232
v -0.00018864810045104985 0.000184059921263309 0.03203017163209232
v -0.00018864810045104985 0.04815432917726792 0.03203017163209232
v -0.07266791181263521 0.04815432917726792 0.03203017163209232
v -0.07253839807499052 0.000184059921263309 0.03203017163209232
v -0.07253841238010494 0.000184059921263309 -0.0490188683043673
v -0.00018864810045104985 0.000184059921263309 -0.0490188683043673
v -0.00018864810045104985 0.000184059921263309 0.03203017163209232
v -0.07253839807499052 0.000184059921263309 0.03203017163209232
v -0.07266791181263521 0.04815432917726792 -0.0490188683043673
v -0.07253841238010494 0.000184059921263309 -0.0490188683043673
v -0.07253839807499052 0.000184059921263309 0.03203017163209232
v -0.07266791181263521 0.04815432917726792 0.03203017163209232
v -0.00018864810045104985 0.000184059921263309 0.03203017163209232
v -0.00018864810045104985 0.000184059921263309 -0.0490188683043673
v -0.00018864810045104985 0.04815432917726792 -0.0490188683043673
v -0.00018864810045104985 0.04815432917726792 0.03203017163209232
vt 0.8226933479309082 0.12047344446182251
vt 0.8226933479309082 0.1940007209777832
vt 0.9229525327682495 0.1940007209777832
vt 0.9229525327682495 0.12047344446182251
vt 0.7219941020011902 0.12047344446182251
vt 0.7219941020011902 0.019148051738739014
vt 0.6217349171638489 0.019148051738739014
vt 0.6217349171638489 0.12047344446182251
vt 0.7219941020011902 0.19505441188812256
vt 0.7219941020011902 0.12047344446182251
vt 0.6217349171638489 0.12047344446182251
vt 0.6217349171638489 0.19505441188812256
vt 0.6217349171638489 0.29407620429992676
vt 0.7219941020011902 0.29407620429992676
vt 0.7219941020011902 0.19505441188812256
vt 0.6217349171638489 0.19505441188812256
vt 0.5210322141647339 0.12047344446182251
vt 0.5210322141647339 0.19505441188812256
vt 0.6217349171638489 0.19505441188812256
vt 0.6217349171638489 0.12047344446182251
vt 0.7219941020011902 0.19505441188812256
vt 0.8226933479309082 0.1940007209777832
vt 0.8226933479309082 0.12047344446182251
vt 0.7219941020011902 0.12047344446182251
vn 0 0 -1
vn 0 0 -1
vn 0 0 -1
vn 0 0 -1
vn 0 1 0
vn 0 1 0
vn 0 1 0
vn 0 1 0
vn 0 0 1
vn 0 0 1
vn 0 0 1
vn 0 0 1
vn 0 -1 1.949020944636004e-10
vn 0 -1 1.9490208058581262e-10
vn 0 -1 1.9490208058581262e-10
vn 0 -1 1.9490210834138824e-10
vn -0.999996355665022 -0.0026997512231723094 8.834243312951723e-8
vn -0.999996355665022 -0.0026997512231723094 8.834243312951723e-8
vn -0.999996355665022 -0.0026997512231723094 8.834243312951723e-8
vn -0.999996355665022 -0.0026997512231723094 8.834243312951723e-8
vn 1 0 0
vn 1 0 0
vn 1 0 0
vn 1 0 0
f 1/1/1 2/2/2 3/3/3
f 1/1/1 3/3/3 4/4/4
f 5/5/5 6/6/6 7/7/7
f 5/5/5 7/7/7 8/8/8
f 9/9/9 10/10/10 11/11/11
f 9/9/9 11/11/11 12/12/12
f 13/13/13 14/14/14 15/15/15
f 13/13/13 15/15/15 16/16/16
f 17/17/17 18/18/18 19/19/19
f 17/17/17 19/19/19 20/20/20
f 21/21/21 22/22/22 23/23/23
f 21/21/21 23/23/23 24/24/24
o polySurface2_texture_gol_0
usemtl texture_gol
v 0.07265429334370133 0.04815432917726792 -0.0490188683043673
v 0.07265429334370133 0.000184059921263309 -0.0490188683043673
v -0.00018848955209949114 0.000184059921263309 -0.0490188683043673
v -0.00018848955209949114 0.04815432917726792 -0.0490188683043673
v 0.07265428857532985 0.04815432917726792 0.03203017163209232
v 0.07265429334370133 0.04815432917726792 -0.0490188683043673
v -0.00018848955209949114 0.04815432917726792 -0.0490188683043673
v -0.00018848955209949114 0.04815432917726792 0.03203017163209232
v 0.07265428857532985 0.000184059921263309 0.03203017163209232
v 0.07265428857532985 0.04815432917726792 0.03203017163209232
v -0.00018848955209949114 0.04815432917726792 0.03203017163209232
v -0.00018848955209949114 0.000184059921263309 0.03203017163209232
v -0.00018848955209949114 0.000184059921263309 -0.0490188683043673
v 0.07265429334370133 0.000184059921263309 -0.0490188683043673
v 0.07265428857532985 0.000184059921263309 0.03203017163209232
v -0.00018848955209949114 0.000184059921263309 0.03203017163209232
v -0.00018848955209949114 0.04815432917726792 -0.0490188683043673
v -0.00018848955209949114 0.000184059921263309 -0.0490188683043673
v -0.00018848955209949114 0.000184059921263309 0.03203017163209232
v -0.00018848955209949114 0.04815432917726792 0.03203017163209232
v 0.07265428857532985 0.000184059921263309 0.03203017163209232
v 0.07265429334370133 0.000184059921263309 -0.0490188683043673
v 0.07265429334370133 0.04815432917726792 -0.0490188683043673
v 0.07265428857532985 0.04815432917726792 0.03203017163209232
vt 0.5576074719429016 0.33390307426452637
vt 0.5576074719429016 0.4060280919075012
vt 0.6583384871482849 0.40750396251678467
vt 0.6583384871482849 0.33390307426452637
vt 0.8612456917762756 0.33390307426452637
vt 0.8620815277099609 0.2333524227142334
vt 0.7596789002418518 0.2333524227142334
vt 0.7596789002418518 0.33390307426452637
vt 0.8604402542114258 0.4077078104019165
vt 0.8612456917762756 0.33390307426452637
vt 0.7596789002418518 0.33390307426452637
vt 0.7596789002418518 0.4074261784553528
vt 0.7596789002418518 0.5096340179443359
vt 0.8620815277099609 0.5081581473350525
vt 0.8604402542114258 0.4077078104019165
vt 0.7596789002418518 0.4074261784553528
vt 0.6583384871482849 0.33390307426452637
vt 0.6583384871482849 0.40750396251678467
vt 0.7596789002418518 0.4074261784553528
vt 0.7596789002418518 0.33390307426452637
vt 0.8604402542114258 0.4077078104019165
vt 0.9634224772453308 0.4073570966720581
vt 0.9634224772453308 0.33390307426452637
vt 0.8612456917762756 0.33390307426452637
vn 0 0 -1
vn 0 0 -1
vn 0 0 -1
vn 0 0 -1
vn 0 0.9999999999999978 -6.461385737566146e-8
vn 0 0.9999999999999978 -6.461385737566146e-8
vn 0 0.9999999999999978 -6.461385737566146e-8
vn 0 0.9999999999999978 -6.461385737566146e-8
vn 0 0 1
vn 0 0 1
vn 0 0 1
vn 0 0 1
vn 0 -1 0
vn 0 -1 0
vn 0 -1 0
vn 0 -1 0
vn -1 0 0
vn -1 0 0
vn -1 0 0
vn -1 0 0
vn 0.9999999999999983 0 5.883316589461164e-8
vn 0.9999999999999983 0 5.883316589461164e-8
vn 0.9999999999999983 0 5.883316589461164e-8
vn 0.9999999999999983 0 5.883316589461164e-8
f 25/25/25 26/26/26 27/27/27
f 25/25/25 27/27/27 28/28/28
f 29/29/29 30/30/30 31/31/31
f 29/29/29 31/31/31 32/32/32
f 33/33/33 34/34/34 35/35/35
f 33/33/33 35/35/35 36/36/36
f 37/37/37 38/38/38 39/39/39
f 37/37/37 39/39/39 40/40/40
f 41/41/41 42/42/42 43/43/43
f 41/41/41 43/43/43 44/44/44
f 45/45/45 46/46/46 47/47/47
f 45/45/45 47/47/47 48/48/48
o polySurface3_texture_gol_0
usemtl texture_gol
v -0.01644704424335708 0.24915933052094275 0.008487798977915961
v 0.01621851646411754 0.24915933052094275 0.008487787056987273
v 0.01621851646411754 0.3063910415830229 0.00848781089884465
v -0.016447025169871177 0.3063910606565088 0.00848778944117301
v -0.016447037090799865 0.3711040032408235 0.008487807322566043
v 0.0162185140799318 0.3711040032408235 0.00848778944117301
v 0.016218528385046227 0.3711040032408235 -0.022528097126004898
v -0.016447038282892734 0.3711040032408235 -0.02252810427856211
v -0.016447038282892734 0.3063910606565088 -0.022528109046933587
v 0.0162185140799318 0.3063910415830229 -0.022528099510190636
v 0.01621852600086049 0.24915933052094275 -0.022528099510190636
v -0.01644704305126421 0.24915933052094275 -0.022528097126004898
v -0.01644704305126421 0.24915933052094275 -0.022528097126004898
v 0.01621852600086049 0.24915933052094275 -0.022528099510190636
v 0.01621851646411754 0.24915933052094275 0.008487787056987273
v -0.01644704424335708 0.24915933052094275 0.008487798977915961
v 0.01621851646411754 0.24915933052094275 0.008487787056987273
v 0.01621852600086049 0.24915933052094275 -0.022528099510190636
v 0.0162185140799318 0.3063910415830229 -0.022528099510190636
v 0.01621851646411754 0.3063910415830229 0.00848781089884465
v -0.01644704305126421 0.24915933052094275 -0.022528097126004898
v -0.01644704424335708 0.24915933052094275 0.008487798977915961
v -0.016447025169871177 0.3063910606565088 0.00848778944117301
v -0.016447038282892734 0.3063910606565088 -0.022528109046933587
v -0.032147044416955595 0.3063910606565088 -0.03822811518099645
v -0.03214701819091248 0.3063910606565088 0.024187802727793084
v -0.03214706110625576 0.3711040032408235 0.024187793191050133
v -0.03214704203276986 0.3711040032408235 -0.038228096107510545
v -0.03214704203276986 0.3711040032408235 -0.038228096107510545
v 0.03191848683539433 0.3711040032408235 -0.038228105644253496
v 0.03191852498236614 0.3063910415830229 -0.038228096107510545
v -0.032147044416955595 0.3063910606565088 -0.03822811518099645
v 0.03191851306143745 0.3063910606565088 0.02418780749616456
v 0.03191852498236614 0.3063910415830229 -0.038228096107510545
v 0.03191848683539433 0.3711040032408235 -0.038228105644253496
v 0.031918515445623186 0.3711040032408235 0.024187821801278986
v -0.03214701819091248 0.3063910606565088 0.024187802727793084
v 0.03191851306143745 0.3063910606565088 0.02418780749616456
v 0.031918515445623186 0.3711040032408235 0.024187821801278986
v -0.03214706110625576 0.3711040032408235 0.024187793191050133
v -0.016447038282892734 0.3063910606565088 -0.022528109046933587
v -0.016447025169871177 0.3063910606565088 0.00848778944117301
v -0.03214701819091248 0.3063910606565088 0.024187802727793084
v -0.032147044416955595 0.3063910606565088 -0.03822811518099645
v -0.03214704203276986 0.3711040032408235 -0.038228096107510545
v -0.03214706110625576 0.3711040032408235 0.024187793191050133
v 0.03191848683539433 0.3711040032408235 -0.038228105644253496
v 0.0162185140799318 0.3063910415830229 -0.022528099510190636
v 0.03191852498236614 0.3063910415830229 -0.038228096107510545
v 0.01621851646411754 0.3063910415830229 0.00848781089884465
v 0.03191851306143745 0.3063910606565088 0.02418780749616456
v 0.031918515445623186 0.3711040032408235 0.024187821801278986
vt 0.18220244348049164 0.7348697781562805
vt 0.23607520759105682 0.7348697781562805
vt 0.23607520759105682 0.6398972570896149
vt 0.18220244348049164 0.6398972570896149
vt 0.11111293733119965 0.8873762413859367
vt 0.15153111517429352 0.8873762413859367
vt 0.15153111517429352 0.848998948931694
vt 0.11111293733119965 0.848998948931694
vt 0.34127333760261536 0.6398972570896149
vt 0.28740057349205017 0.6398972570896149
vt 0.28740057349205017 0.7348697781562805
vt 0.34127333760261536 0.7348697781562805
vt 0.18220244348049164 0.7858395278453827
vt 0.23607520759105682 0.7858395278453827
vt 0.23607520759105682 0.7348697781562805
vt 0.18220244348049164 0.7348697781562805
vt 0.23607520759105682 0.7348697781562805
vt 0.28740057349205017 0.7348697781562805
vt 0.28740057349205017 0.6398972570896149
vt 0.23607520759105682 0.6398972570896149
vt 0.1312236487865448 0.7348697781562805
vt 0.18220244348049164 0.7348697781562805
vt 0.18220244348049164 0.6398972570896149
vt 0.1312236487865448 0.6398972570896149
vt 0.011615436524152756 0.8299173563718796
vt 0.011615436524152756 0.9071463868021965
vt 0.09168718755245209 0.9071463868021965
vt 0.09168718755245209 0.8299173563718796
vt 0.09168718755245209 0.8299173563718796
vt 0.1709575206041336 0.8299173563718796
vt 0.1709575206041336 0.749501645565033
vt 0.09168718755245209 0.749501645565033
vt 0.25102847814559937 0.9071463868021965
vt 0.25102847814559937 0.8299173563718796
vt 0.1709575206041336 0.8299173563718796
vt 0.1709575206041336 0.9071463868021965
vt 0.09168718755245209 0.9868735522031784
vt 0.1709575206041336 0.9868735522031784
vt 0.1709575206041336 0.9071463868021965
vt 0.09168718755245209 0.9071463868021965
vt 0.3108726143836975 0.8503827303647995
vt 0.3108726143836975 0.8887600228190422
vt 0.3302987217903137 0.9071463868021965
vt 0.3302987217903137 0.8299173563718796
vt 0.09168718755245209 0.8299173563718796
vt 0.09168718755245209 0.9071463868021965
vt 0.1709575206041336 0.8299173563718796
vt 0.2704545855522156 0.8503827303647995
vt 0.25102847814559937 0.8299173563718796
vt 0.2704545855522156 0.8887600228190422
vt 0.25102847814559937 0.9071463868021965
vt 0.1709575206041336 0.9071463868021965
vn -1.2753027078815445e-7 -1.2497540069489134e-7 0.9999999999999841
vn -1.2753027078815445e-7 -1.2497538648403662e-7 0.9999999999999841
vn -1.2753025657729973e-7 -1.2497538648403662e-7 0.9999999999999841
vn -1.2753025657729973e-7 -1.2497538648403662e-7 0.9999999999999841
vn 0 0.9999999999999907 -1.360229191504901e-7
vn 0 0.9999999999999907 -1.3602313231331082e-7
vn 0 0.9999999999999766 2.1585148601843182e-7
vn 0 0.9999999999999766 2.158517702355261e-7
vn 1.5303632494578514e-7 -1.0414618145659737e-7 -0.9999999999999829
vn 1.5303632494578514e-7 -1.0414619566745208e-7 -0.9999999999999829
vn 1.5303632494578514e-7 -1.0414618145659737e-7 -0.9999999999999829
vn 1.5303631073493045e-7 -1.0414617435117001e-7 -0.9999999999999829
vn 0 -0.999999999999957 -2.9316547056622416e-7
vn 0 -0.999999999999957 -2.9316547056622416e-7
vn 0 -0.999999999999957 -2.9316547056622416e-7
vn 0 -0.999999999999957 -2.9316547056622416e-7
vn 0.9999999999999872 1.1038559932785434e-7 1.1530479326893181e-7
vn 0.9999999999999872 1.1038559932785434e-7 1.1530479326893181e-7
vn 0.9999999999999872 1.1038559932785434e-7 1.1530479326893181e-7
vn 0.9999999999999872 1.1038559932785434e-7 1.1530478616350445e-7
vn -0.9999999999999577 2.179033486981915e-7 1.9217453939290047e-7
vn -0.9999999999999577 2.179033486981915e-7 1.9217453939290047e-7
vn -0.9999999999999577 2.179033486981915e-7 1.9217453939290047e-7
vn -0.9999999999999577 2.179033486981915e-7 1.9217453939290047e-7
vn -0.9999999999999404 -3.4069219623231915e-7 5.7297725675194887e-8
vn -0.9999999999999404 -3.406922246540286e-7 5.7297722122481214e-8
vn -0.9999999999999404 -3.4069219623231915e-7 5.7297725675194887e-8
vn -0.9999999999999404 -3.406922246540286e-7 5.729773278062225e-8
vn 9.20119731517837e-8 7.368499410631507e-8 -0.9999999999999931
vn 9.20119731517837e-8 7.368500121174243e-8 -0.9999999999999931
vn 9.20119731517837e-8 7.368500121174243e-8 -0.9999999999999931
vn 9.201198736263841e-8 7.368500121174243e-8 -0.9999999999999931
vn 0.9999999999999454 3.0193163524925867e-7 -1.3369448481625292e-7
vn 0.9999999999999454 3.0193163524925867e-7 -1.3369448481625292e-7
vn 0.9999999999999454 3.0193163524925867e-7 -1.3369448481625292e-7
vn 0.9999999999999454 3.0193163524925867e-7 -1.3369448481625292e-7
vn -2.5303293682553964e-7 -3.6842578765571194e-8 0.9999999999999672
vn -2.5303293682553964e-7 -3.6842578765571194e-8 0.9999999999999672
vn -2.5303293682553964e-7 -3.6842578765571194e-8 0.9999999999999672
vn -2.530329084038302e-7 -3.6842578765571194e-8 0.9999999999999672
vn -2.0060153360639625e-7 -0.9999999999996859 -7.66629966619562e-7
vn -1.0030085917378478e-7 -0.999999999999995 0
vn -1.0030095154434043e-7 -0.999999999999995 0
vn -2.0060156202810568e-7 -0.9999999999996859 -7.66629966619562e-7
vn 0 0.9999999999998694 5.110862275613968e-7
vn 0 1 0
vn 0 0.9999999999998694 5.110878760205439e-7
vn 9.784684351643226e-8 -0.9999999999999626 -2.555434548412354e-7
vn 9.78470708901077e-8 -0.9999999999999626 -2.555428295636279e-7
vn 1.981475037382254e-7 -0.9999999999998497 5.11086511778481e-7
vn 1.9814760321420838e-7 -0.9999999999998497 5.110866254653188e-7
vn 0 1 0
f 49/49/49 50/50/50 51/51/51
f 49/49/49 51/51/51 52/52/52
f 53/53/53 54/54/54 55/55/55
f 53/53/53 55/55/55 56/56/56
f 57/57/57 58/58/58 59/59/59
f 57/57/57 59/59/59 60/60/60
f 61/61/61 62/62/62 63/63/63
f 61/61/61 63/63/63 64/64/64
f 65/65/65 66/66/66 67/67/67
f 65/65/65 67/67/67 68/68/68
f 69/69/69 70/70/70 71/71/71
f 69/69/69 71/71/71 72/72/72
f 73/73/73 74/74/74 75/75/75
f 73/73/73 75/75/75 76/76/76
f 77/77/77 78/78/78 79/79/79
f 77/77/77 79/79/79 80/80/80
f 81/81/81 82/82/82 83/83/83
f 81/81/81 83/83/83 84/84/84
f 85/85/85 86/86/86 87/87/87
f 85/85/85 87/87/87 88/88/88
f 89/89/89 90/90/90 91/91/91
f 89/89/89 91/91/91 92/92/92
f 53/53/53 56/56/56 93/93/93
f 53/53/53 93/93/93 94/94/94
f 56/56/56 55/55/55 95/95/95
f 56/56/56 95/95/95 93/93/93
f 96/96/96 89/89/89 92/92/92
f 96/96/96 92/92/92 97/97/97
f 98/98/98 96/96/96 97/97/97
f 98/98/98 97/97/97 99/99/99
f 55/55/55 54/54/54 100/100/100
f 55/55/55 100/100/100 95/95/95
f 90/90/90 98/98/98 99/99/99
f 90/90/90 99/99/99 91/91/91
f 54/54/54 53/53/53 94/94/94
f 54/54/54 94/94/94 100/100/100
o polySurface4_texture_gol_0
usemtl texture_gol
v 0.07265428857532985 0.14534768733350134 -0.07048790774148905
v 0.07265428857532985 0.14534768733350134 0.056285241776289574
v 0.07265428857532985 0.04815432917726792 0.056285241776289574
v 0.07265428857532985 0.04815432917726792 -0.07048790774148905
v -0.07266791181263521 0.14534768733350134 0.056285241776289574
v -0.07266791181263521 0.14534768733350134 -0.07048790774148905
v -0.07266791181263521 0.04815432917726792 -0.07048790774148905
v -0.07266791181263521 0.04815432917726792 0.056285241776289574
v -0.07266791181263521 0.04815432917726792 -0.07048790774148905
v -0.07266791181263521 0.14534768733350134 -0.07048790774148905
v 0.07265428857532985 0.14534768733350134 -0.07048790774148905
v 0.07265428857532985 0.04815432917726792 -0.07048790774148905
v -0.07266791181263521 0.14534768733350134 -0.07048790774148905
v -0.07266791181263521 0.14534768733350134 0.056285241776289574
v 0.07265428857532985 0.14534768733350134 0.056285241776289574
v 0.07265428857532985 0.14534768733350134 -0.07048790774148905
v -0.07266791181263521 0.14534768733350134 0.056285241776289574
v -0.07266791181263521 0.04815432917726792 0.056285241776289574
v 0.07265428857532985 0.04815432917726792 0.056285241776289574
v 0.07265428857532985 0.14534768733350134 0.056285241776289574
v -0.07266791181263521 0.04815432917726792 0.056285241776289574
v -0.07266791181263521 0.04815432917726792 -0.07048790774148905
v 0.07265428857532985 0.04815432917726792 -0.07048790774148905
v 0.07265428857532985 0.04815432917726792 0.056285241776289574
vt 0.35276567935943604 0.4336666464805603
vt 0.2536322772502899 0.4336666464805603
vt 0.2536322772502899 0.523233562707901
vt 0.35276567935943604 0.523233562707901
vt 0.11608205735683441 0.4336666464805603
vt 0.01694866642355919 0.4336666464805603
vt 0.01694866642355919 0.523233562707901
vt 0.11608205735683441 0.523233562707901
vt 0.49031591415405273 0.523233562707901
vt 0.49031591415405273 0.4336666464805603
vt 0.35276567935943604 0.4336666464805603
vt 0.35276567935943604 0.523233562707901
vt 0.11608205735683441 0.33445078134536743
vt 0.11608205735683441 0.4336666464805603
vt 0.2536322772502899 0.4336666464805603
vt 0.2536322772502899 0.33445078134536743
vt 0.11608205735683441 0.4336666464805603
vt 0.11608205735683441 0.523233562707901
vt 0.2536322772502899 0.523233562707901
vt 0.2536322772502899 0.4336666464805603
vt 0.11608205735683441 0.523233562707901
vt 0.11608205735683441 0.6222843527793884
vt 0.2536322772502899 0.6222843527793884
vt 0.2536322772502899 0.523233562707901
vn 1 0 0
vn 1 0 0
vn 1 0 0
vn 1 0 0
vn -1 0 0
vn -1 0 0
vn -1 0 0
vn -1 0 0
vn 0 0 -1
vn 0 0 -1
vn 0 0 -1
vn 0 0 -1
vn 0 1 0
vn 0 1 0
vn 0 1 0
vn 0 1 0
vn 0 0 1
vn 0 0 1
vn 0 0 1
vn 0 0 1
vn 0 -1 0
vn 0 -1 0
vn 0 -1 0
vn 0 -1 0
f 101/101/101 102/102/102 103/103/103
f 101/101/101 103/103/103 104/104/104
f 105/105/105 106/106/106 107/107/107
f 105/105/105 107/107/107 108/108/108
f 109/109/109 110/110/110 111/111/111
f 109/109/109 111/111/111 112/112/112
f 113/113/113 114/114/114 115/115/115
f 113/113/113 115/115/115 116/116/116
f 117/117/117 118/118/118 119/119/119
f 117/117/117 119/119/119 120/120/120
f 121/121/121 122/122/122 123/123/123
f 121/121/121 123/123/123 124/124/124
o polySurface5_texture_gol_0
usemtl texture_gol
v 0.07265429334370133 0.15368145599183158 -0.04662577524872624
v 0.0726542981120728 0.15368145599183158 0.03442328614540502
v 0.11311396345986502 0.15368145599183158 0.03442328614540502
v 0.11311395392312207 0.15368145599183158 -0.04662577524872624
v 0.07265429334370133 0.015995537877182553 0.03442328614540502
v 0.07265429334370133 0.015995537877182553 -0.04662577524872624
v 0.11311395392312207 0.015995537877182553 -0.04662577524872624
v 0.11311396345986502 0.015995537877182553 0.03442328614540502
v 0.11311395392312207 0.15368145599183158 -0.04662577524872624
v 0.11311396345986502 0.15368145599183158 0.03442328614540502
v 0.11311396345986502 0.015995537877182553 0.03442328614540502
v 0.11311395392312207 0.015995537877182553 -0.04662577524872624
v 0.11311396345986502 0.015995537877182553 0.03442328614540502
v 0.11311396345986502 0.15368145599183158 0.03442328614540502
v 0.0726542981120728 0.15368145599183158 0.03442328614540502
v 0.07265429334370133 0.015995537877182553 0.03442328614540502
v 0.0726542981120728 0.15368145599183158 0.03442328614540502
v 0.07265429334370133 0.15368145599183158 -0.04662577524872624
v 0.07265429334370133 0.015995537877182553 -0.04662577524872624
v 0.07265429334370133 0.015995537877182553 0.03442328614540502
v 0.07265429334370133 0.15368145599183158 -0.04662577524872624
v 0.11311395392312207 0.15368145599183158 -0.04662577524872624
v 0.11311395392312207 0.015995537877182553 -0.04662577524872624
v 0.07265429334370133 0.015995537877182553 -0.04662577524872624
vt 0.8351028561592102 0.6081769466400146
vt 0.8351028561592102 0.6979363560676575
vt 0.8911648988723755 0.6979363560676575
vt 0.8911648988723755 0.6081769466400146
vt 0.8359577655792236 0.8868150785565376
vt 0.8359577655792236 0.9765497874468565
vt 0.8911648988723755 0.9765497874468565
vt 0.8911648988723755 0.8868150785565376
vt 0.980911135673523 0.6979363560676575
vt 0.8911648988723755 0.6979363560676575
vt 0.8911648988723755 0.8868150785565376
vt 0.980911135673523 0.8868150785565376
vt 0.8911648988723755 0.8868150785565376
vt 0.8911648988723755 0.6979363560676575
vt 0.8351028561592102 0.6979363560676575
vt 0.8359577655792236 0.8868150785565376
vt 0.8351028561592102 0.6979363560676575
vt 0.7453554272651672 0.6979363560676575
vt 0.7462103366851807 0.8868150785565376
vt 0.8359577655792236 0.8868150785565376
vt 0.7453554272651672 0.6979363560676575
vt 0.6892935633659363 0.6979363560676575
vt 0.6892935633659363 0.8868150785565376
vt 0.7462103366851807 0.8868150785565376
vn 0 1 0
vn 0 1 0
vn 0 1 0
vn 0 1 0
vn 0 -1 0
vn 0 -1 0
vn 0 -1 0
vn 0 -1 0
vn 0.9999999999999931 0 -1.176663104729406e-7
vn 0.9999999999999931 0 -1.176663104729406e-7
vn 0.9999999999999931 0 -1.176663104729406e-7
vn 0.9999999999999931 0 -1.176663104729406e-7
vn 0 0 1
vn 0 0 1
vn 0 0 1
vn 0 0 1
vn -0.9999999999999996 0 2.9416579394592174e-8
vn -0.9999999999999996 0 2.9416579394592174e-8
vn -0.9999999999999996 0 2.9416579394592174e-8
vn -0.9999999999999996 0 2.9416579394592174e-8
vn 0 0 -1
vn 0 0 -1
vn 0 0 -1
vn 0 0 -1
f 125/125/125 126/126/126 127/127/127
f 125/125/125 127/127/127 128/128/128
f 129/129/129 130/130/130 131/131/131
f 129/129/129 131/131/131 132/132/132
f 133/133/133 134/134/134 135/135/135
f 133/133/133 135/135/135 136/136/136
f 137/137/137 138/138/138 139/139/139
f 137/137/137 139/139/139 140/140/140
f 141/141/141 142/142/142 143/143/143
f 141/141/141 143/143/143 144/144/144
f 145/145/145 146/146/146 147/147/147
f 145/145/145 147/147/147 148/148/148
o polySurface6_texture_gol_0
usemtl texture_gol
v -0.08095567522297031 0.25026599324645105 0.098110301685848
v 0.08078853426601285 0.25026599324645105 0.0981103589063057
v 0.08078851519252694 0.25026601231993695 -0.11179828393910185
v -0.08095565614948441 0.25026599324645105 -0.11179834115955956
v -0.08095566568622736 0.1453476968702443 -0.11179847467396087
v 0.0807885247292699 0.14534768733350134 -0.11179826486561595
v 0.0807885438027558 0.14534768733350134 0.09811031122259095
v -0.08095568475971326 0.14534768733350134 0.09811033029607685
v 0.08078853426601285 0.25026599324645105 0.0981103589063057
v 0.0807885438027558 0.14534768733350134 0.09811031122259095
v 0.0807885247292699 0.14534768733350134 -0.11179826486561595
v 0.08078851519252694 0.25026601231993695 -0.11179828393910185
v 0.08078853426601285 0.25026599324645105 0.0981103589063057
v -0.08095567522297031 0.25026599324645105 0.098110301685848
v -0.08095568475971326 0.14534768733350134 0.09811033029607685
v 0.0807885438027558 0.14534768733350134 0.09811031122259095
v -0.08095568475971326 0.14534768733350134 0.09811033029607685
v -0.08095567522297031 0.25026599324645105 0.098110301685848
v -0.08095565614948441 0.25026599324645105 -0.11179834115955956
v -0.08095566568622736 0.1453476968702443 -0.11179847467396087
v -0.08095565614948441 0.25026599324645105 -0.11179834115955956
v 0.08078851519252694 0.25026601231993695 -0.11179828393910185
v 0.0807885247292699 0.14534768733350134 -0.11179826486561595
v -0.08095566568622736 0.1453476968702443 -0.11179847467396087
vt 0.11524899303913116 0.11093968152999878
vt 0.2353249341249466 0.11093771457672119
vt 0.23459546267986298 0.009543538093566895
vt 0.11527279764413834 0.009169042110443115
vt 0.11531741917133331 0.30058884620666504
vt 0.23549605906009674 0.30058884620666504
vt 0.23611629009246826 0.20098960399627686
vt 0.11473972350358963 0.20098763704299927
vt 0.2353249341249466 0.11093771457672119
vt 0.23611629009246826 0.20098960399627686
vt 0.33746740221977234 0.19910764694213867
vt 0.3365668058395386 0.11200523376464844
vt 0.2353249341249466 0.11093771457672119
vt 0.11524899303913116 0.11093968152999878
vt 0.11473972350358963 0.20098763704299927
vt 0.23611629009246826 0.20098960399627686
vt 0.11473972350358963 0.20098763704299927
vt 0.11524899303913116 0.11093968152999878
vt 0.01330135203897953 0.110565185546875
vt 0.013345975428819656 0.20098763704299927
vt 0.45689713954925537 0.11163073778152466
vt 0.3365668058395386 0.11200523376464844
vt 0.33746740221977234 0.19910764694213867
vt 0.45764610171318054 0.19910764694213867
vn -5.89619162383313e-8 0.9999999999999971 5.071019870683798e-8
vn -5.8961912685617625e-8 0.9999999999999971 5.0710195154124297e-8
vn -5.89619162383313e-8 0.9999999999999971 5.071020225955166e-8
vn -5.8961919791044976e-8 0.9999999999999971 5.071019870683798e-8
vn -2.948092614474261e-8 -0.9999999999999996 8.231461734453657e-9
vn -2.948092614474261e-8 -0.9999999999999996 8.231460846275235e-9
vn -2.948092614474261e-8 -0.9999999999999996 8.231460846275235e-9
vn -2.948092614474261e-8 -0.9999999999999996 8.231461734453657e-9
vn 0.9999999999999744 2.0785465437711005e-7 -9.086566166160759e-8
vn 0.9999999999999744 2.0785466858796473e-7 -9.086565455618023e-8
vn 0.9999999999999744 2.0785468279881948e-7 -9.086568297788966e-8
vn 0.9999999999999744 2.0785465437711005e-7 -9.086566166160759e-8
vn -8.99166252565912e-8 -9.089683317142696e-8 0.9999999999999917
vn -8.99166252565912e-8 -9.089683317142696e-8 0.9999999999999917
vn -8.991663236201855e-8 -9.089684027685432e-8 0.9999999999999917
vn -8.991663236201855e-8 -9.089684027685432e-8 0.9999999999999917
vn -0.9999999999999861 1.3856971747827438e-7 -9.086562613447187e-8
vn -0.9999999999999861 1.3856971747827438e-7 -9.086563323989923e-8
vn -0.9999999999999861 1.3856970326741967e-7 -9.086562613447187e-8
vn -0.9999999999999861 1.3856971747827438e-7 -9.086563323989923e-8
vn 8.092497409957798e-7 5.453809990283067e-7 -0.9999999999995238
vn 8.092497409957798e-7 5.453809990283067e-7 -0.9999999999995238
vn 8.092498546826176e-7 5.453809990283067e-7 -0.9999999999995238
vn 8.092497409957798e-7 5.453809990283067e-7 -0.9999999999995238
f 149/149/149 150/150/150 151/151/151
f 149/149/149 151/151/151 152/152/152
f 153/153/153 154/154/154 155/155/155
f 153/153/153 155/155/155 156/156/156
f 157/157/157 158/158/158 159/159/159
f 157/157/157 159/159/159 160/160/160
f 161/161/161 162/162/162 163/163/163
f 161/161/161 163/163/163 164/164/164
f 165/165/165 166/166/166 167/167/167
f 165/165/165 167/167/167 168/168/168
f 169/169/169 170/170/170 171/171/171
f 169/169/169 171/171/171 172/172/172
o polySurface7_texture_gol_0
usemtl texture_gol
v -0.07266791181263521 0.15368145599183158 0.03442328614540502
v -0.07266791658100669 0.15368145599183158 -0.04662577524872624
v -0.11306969389908694 0.15368145599183158 -0.04662577524872624
v -0.11306968436234399 0.15368145599183158 0.03442328614540502
v -0.11306969389908694 0.015995537877182553 -0.04662577524872624
v -0.07266791658100669 0.015995537877182553 -0.04662577524872624
v -0.07266791181263521 0.015995537877182553 0.03442328614540502
v -0.11306968436234399 0.015995537877182553 0.03442328614540502
v -0.07266791658100669 0.15368145599183158 -0.04662577524872624
v -0.07266791181263521 0.15368145599183158 0.03442328614540502
v -0.07266791181263521 0.015995537877182553 0.03442328614540502
v -0.07266791658100669 0.015995537877182553 -0.04662577524872624
v -0.07266791181263521 0.15368145599183158 0.03442328614540502
v -0.11306968436234399 0.15368145599183158 0.03442328614540502
v -0.11306968436234399 0.015995537877182553 0.03442328614540502
v -0.07266791181263521 0.015995537877182553 0.03442328614540502
v -0.11306968436234399 0.15368145599183158 0.03442328614540502
v -0.11306969389908694 0.15368145599183158 -0.04662577524872624
v -0.11306969389908694 0.015995537877182553 -0.04662577524872624
v -0.11306968436234399 0.015995537877182553 0.03442328614540502
v -0.11306969389908694 0.15368145599183158 -0.04662577524872624
v -0.07266791658100669 0.15368145599183158 -0.04662577524872624
v -0.07266791658100669 0.015995537877182553 -0.04662577524872624
v -0.11306969389908694 0.015995537877182553 -0.04662577524872624
vt 0.5265318155288696 0.6985200047492981
vt 0.5265318155288696 0.6084801554679871
vt 0.47055327892303467 0.6084801554679871
vt 0.47055327892303467 0.6985200047492981
vt 0.47055327892303467 0.9778001289814711
vt 0.5265318155288696 0.9778001289814711
vt 0.5265318155288696 0.8883559703826904
vt 0.47055327892303467 0.8883559703826904
vt 0.6162749528884888 0.6985200047492981
vt 0.5265318155288696 0.6985200047492981
vt 0.5265318155288696 0.8883559703826904
vt 0.6162749528884888 0.8883559703826904
vt 0.5265318155288696 0.6985200047492981
vt 0.47055327892303467 0.6985200047492981
vt 0.47055327892303467 0.8883559703826904
vt 0.5265318155288696 0.8883559703826904
vt 0.47055327892303467 0.6985200047492981
vt 0.3808124363422394 0.6985200047492981
vt 0.3808124363422394 0.8883559703826904
vt 0.47055327892303467 0.8883559703826904
vt 0.6722534894943237 0.6985200047492981
vt 0.6162749528884888 0.6985200047492981
vt 0.6162749528884888 0.8883559703826904
vt 0.6722534894943237 0.8883559703826904
vn 0 1 0
vn 0 1 0
vn 0 1 0
vn 0 1 0
vn 0 -0.9999999999999999 -1.1662610432949803e-8
vn 0 -0.9999999999999999 -1.1662610432949803e-8
vn 0 -0.9999999999999999 -1.1662610432949803e-8
vn 0 -0.9999999999999999 -1.1662610432949803e-8
vn 0.9999999999999983 0 -5.88331552364706e-8
vn 0.9999999999999983 0 -5.88331552364706e-8
vn 0.9999999999999983 0 -5.88331552364706e-8
vn 0.9999999999999983 0 -5.88331552364706e-8
vn 0 0 1
vn 0 0 1
vn 0 0 1
vn 0 0 1
vn -0.9999999999999931 0 1.176663104729406e-7
vn -0.9999999999999931 0 1.176663104729406e-7
vn -0.9999999999999931 0 1.176663104729406e-7
vn -0.9999999999999931 0 1.176663104729406e-7
vn 0 0 -1
vn 0 0 -1
vn 0 0 -1
vn 0 0 -1
f 173/173/173 174/174/174 175/175/175
f 173/173/173 175/175/175 176/176/176
f 177/177/177 178/178/178 179/179/179
f 177/177/177 179/179/179 180/180/180
f 181/181/181 182/182/182 183/183/183
f 181/181/181 183/183/183 184/184/184
f 185/185/185 186/186/186 187/187/187
f 185/185/185 187/187/187 188/188/188
f 189/189/189 190/190/190 191/191/191
f 189/189/189 191/191/191 192/192/192
f 193/193/193 194/194/194 195/195/195
f 193/193/193 195/195/195 196/196/196
o polySurface8_texture_gol_0
usemtl texture_gol
v 0.01597829067755585 0.1855558926115357 0.12174668993622006
v -0.016405403247354844 0.1855558926115357 0.12174668993622006
v -0.016405403247354844 0.12052991597660068 0.12174668993622006
v 0.01597829067755585 0.12052991597660068 0.12174668993622006
v 0.01597829067755585 0.12052991597660068 0.12174668993622006
v -0.016405403247354844 0.12052991597660068 0.12174668993622006
v -0.016405403247354844 0.12052991597660068 0.08933214941623469
v 0.01597829067755585 0.12052991597660068 0.08933214941623469
v 0.01597829067755585 0.12052991597660068 0.08933214941623469
v -0.016405403247354844 0.12052991597660068 0.08933214941623469
v -0.016405403247354844 0.1855558926115357 0.08933214941623469
v 0.01597829067755585 0.1855558926115357 0.08933214941623469
v 0.01597829067755585 0.1855558926115357 0.08933214941623469
v -0.016405403247354844 0.1855558926115357 0.08933214941623469
v -0.016405403247354844 0.1855558926115357 0.12174668993622006
v 0.01597829067755585 0.1855558926115357 0.12174668993622006
v -0.016405403247354844 0.1855558926115357 0.12174668993622006
v -0.016405403247354844 0.1855558926115357 0.08933214941623469
v -0.016405403247354844 0.12052991597660068 0.08933214941623469
v -0.016405403247354844 0.12052991597660068 0.12174668993622006
v 0.01597829067755585 0.1855558926115357 0.08933214941623469
v 0.01597829067755585 0.1855558926115357 0.12174668993622006
v 0.01597829067755585 0.12052991597660068 0.12174668993622006
v 0.01597829067755585 0.12052991597660068 0.08933214941623469
vt 0.3392197787761688 0.2814972996711731
vt 0.3786773681640625 0.2814972996711731
vt 0.3786773681640625 0.36007827520370483
vt 0.3392197787761688 0.35988008975982666
vt 0.4576304256916046 0.39890944957733154
vt 0.41817280650138855 0.3991076350212097
vt 0.41817280650138855 0.3597174286842346
vt 0.4576304256916046 0.3599972724914551
vt 0.4576304256916046 0.3599972724914551
vt 0.41817280650138855 0.3597174286842346
vt 0.41817280650138855 0.2814972996711731
vt 0.4576304256916046 0.2814972996711731
vt 0.4576304256916046 0.2814972996711731
vt 0.41817280650138855 0.2814972996711731
vt 0.41817280650138855 0.24153608083724976
vt 0.4576304256916046 0.24153608083724976
vt 0.3786773681640625 0.2814972996711731
vt 0.41817280650138855 0.2814972996711731
vt 0.41817280650138855 0.3597174286842346
vt 0.3786773681640625 0.36007827520370483
vt 0.4576304256916046 0.2814972996711731
vt 0.4971254765987396 0.2814972996711731
vt 0.4971254765987396 0.35988008975982666
vt 0.4576304256916046 0.3599972724914551
vn 0 0 1
vn 0 0 1
vn 0 0 1
vn 0 0 1
vn 0 -1 0
vn 0 -1 0
vn 0 -1 0
vn 0 -1 0
vn 0 0 -1
vn 0 0 -1
vn 0 0 -1
vn 0 0 -1
vn 0 1 0
vn 0 1 0
vn 0 1 0
vn 0 1 0
vn -1 0 0
vn -1 0 0
vn -1 0 0
vn -1 0 0
vn 1 0 0
vn 1 0 0
vn 1 0 0
vn 1 0 0
f 197/197/197 198/198/198 199/199/199
f 197/197/197 199/199/199 200/200/200
f 201/201/201 202/202/202 203/203/203
f 201/201/201 203/203/203 204/204/204
f 205/205/205 206/206/206 207/207/207
f 205/205/205 207/207/207 208/208/208
f 209/209/209 210/210/210 211/211/211
f 209/209/209 211/211/211 212/212/212
f 213/213/213 214/214/214 215/215/215
f 213/213/213 215/215/215 216/216/216
f 217/217/217 218/218/218 219/219/219
f 217/217/217 219/219/219 220/220/220
