# Blender 3.6.0
# www.blender.org
mtllib candles_3d-pie.mtl
o candle
v -0.087355 0.000000 0.058237
v 0.058237 0.000000 0.087355
v -0.087355 0.437928 0.058237
v 0.058237 0.437928 0.087355
v -0.087355 0.000000 -0.058237
v -0.058237 0.000000 0.087355
v -0.087355 0.437928 -0.058237
v -0.058237 0.437928 0.087355
v 0.058237 0.000000 -0.087355
v 0.087355 0.000000 0.058237
v 0.087355 0.437928 0.058237
v 0.058237 0.437928 -0.087355
v -0.058237 0.000000 -0.087355
v 0.087355 0.000000 -0.058237
v -0.058237 0.437928 -0.087355
v 0.087355 0.437928 -0.058237
v 0.058237 0.437928 -0.058237
v -0.058237 0.437928 -0.058237
v -0.058237 0.000000 -0.058237
v 0.058237 0.000000 -0.058237
v -0.058237 0.437928 0.058237
v 0.058237 0.437928 0.058237
v -0.058237 0.000000 0.058237
v 0.058237 0.000000 0.058237
v 0.058237 0.393353 -0.058237
v -0.058237 0.393353 -0.058237
v -0.058237 0.393353 0.058237
v 0.058237 0.393353 0.058237
v 0.009725 0.393353 -0.009725
v -0.009725 0.393353 -0.009725
v -0.009725 0.393353 0.009725
v 0.009725 0.393353 0.009725
v 0.009725 0.468552 -0.009725
v -0.009725 0.468552 -0.009725
v -0.009725 0.468552 0.009725
v 0.009725 0.468552 0.009725
v 0.013891 0.494337 -0.022832
v -0.022832 0.494337 -0.013891
v -0.013891 0.494337 0.022832
v 0.022832 0.494337 0.013891
v 0.002968 0.514465 -0.033642
v -0.033642 0.514465 -0.002968
v -0.002968 0.514465 0.033642
v 0.033642 0.514465 0.002968
v -0.008709 0.541903 -0.027984
v -0.027984 0.541903 0.008709
v 0.008709 0.541903 0.027984
v 0.027984 0.541903 -0.008709
v -0.008211 0.580029 -0.009263
v -0.009263 0.580029 0.008211
v 0.008211 0.580029 0.009263
v 0.009263 0.580029 -0.008211
v 0.000000 0.630919 0.000000
v -0.450000 -0.500000 0.450000
v -0.450000 0.000000 0.450000
v -0.450000 -0.500000 -0.450000
v -0.450000 0.000000 -0.450000
v 0.450000 -0.500000 0.450000
v 0.450000 0.000000 0.450000
v 0.450000 -0.500000 -0.450000
v 0.450000 0.000000 -0.450000
vn -1.0000 -0.0000 -0.0000
vn -0.0000 -0.0000 -1.0000
vn 1.0000 -0.0000 -0.0000
vn -0.0000 -0.0000 1.0000
vn -0.0000 1.0000 -0.0000
vn -0.0000 -1.0000 -0.0000
vn 0.1480 -0.3371 0.9298
vn 0.8527 -0.2463 -0.4606
vn 0.9298 -0.3371 -0.1480
vn -0.1480 -0.3371 -0.9298
vn -0.9298 -0.3371 0.1480
vn -0.7644 0.1165 -0.6341
vn -0.4606 -0.2463 -0.8527
vn -0.8527 -0.2463 0.4606
vn 0.4606 -0.2463 0.8527
vn 0.8917 0.3047 0.3346
vn -0.6341 0.1165 0.7644
vn 0.7644 0.1165 0.6341
vn 0.6341 0.1165 -0.7644
vn 0.9837 0.1695 0.0592
vn 0.3346 0.3047 -0.8917
vn -0.8917 0.3047 -0.3346
vn -0.3346 0.3047 0.8917
vn 0.0592 0.1695 -0.9837
vn -0.9837 0.1695 -0.0592
vn -0.0592 0.1695 0.9837
vt 0.123705 0.892789
vt 0.038024 0.892789
vt 0.038024 0.926367
vt 0.123705 0.926367
vt 0.123705 0.968594
vt 0.123705 0.960351
vt 0.038024 0.960351
vt 0.038024 0.968594
vt 0.188321 0.926367
vt 0.188321 0.892789
vt 0.167256 0.892789
vt 0.167256 0.926367
vt 0.123705 0.926570
vt 0.038024 0.926570
vt 0.038024 0.960149
vt 0.123705 0.960149
vt 0.124179 0.968594
vt 0.209860 0.968594
vt 0.209860 0.960351
vt 0.124179 0.960351
vt 0.209860 0.892789
vt 0.188795 0.892789
vt 0.188795 0.926367
vt 0.209860 0.926367
vt 0.038024 0.977039
vt 0.123705 0.977039
vt 0.123705 0.968797
vt 0.038024 0.968797
vt 0.231398 0.926367
vt 0.231398 0.892789
vt 0.210334 0.892789
vt 0.210334 0.926367
vt 0.124179 0.977039
vt 0.209860 0.977039
vt 0.209860 0.968797
vt 0.124179 0.968797
vt 0.166782 0.926367
vt 0.166782 0.892789
vt 0.124179 0.892789
vt 0.124179 0.926367
vt 0.123705 0.985484
vt 0.123705 0.977242
vt 0.038024 0.977242
vt 0.038024 0.985484
vt 0.231398 0.960149
vt 0.231398 0.926570
vt 0.210334 0.926570
vt 0.210334 0.960149
vt 0.124179 0.943258
vt 0.209860 0.943258
vt 0.209860 0.926570
vt 0.124179 0.926570
vt 0.252937 0.926367
vt 0.252937 0.892789
vt 0.231873 0.892789
vt 0.231873 0.926367
vt 0.209860 0.985484
vt 0.209860 0.977242
vt 0.124179 0.977242
vt 0.124179 0.985484
vt 0.231398 0.977039
vt 0.231398 0.960351
vt 0.210334 0.960351
vt 0.210334 0.977039
vt 0.231873 0.968594
vt 0.274476 0.968594
vt 0.274476 0.960351
vt 0.231873 0.960351
vt 0.252937 0.968797
vt 0.231873 0.968797
vt 0.231873 0.985484
vt 0.252937 0.985484
vt 0.080627 0.993930
vt 0.080627 0.985687
vt 0.038024 0.985687
vt 0.038024 0.993930
vt 0.252937 0.960149
vt 0.252937 0.926570
vt 0.231873 0.926570
vt 0.231873 0.960149
vt 0.209860 0.960149
vt 0.209860 0.943461
vt 0.124179 0.943461
vt 0.124179 0.960149
vt 0.274476 0.926367
vt 0.274476 0.892789
vt 0.253411 0.892789
vt 0.253411 0.926367
vt 0.369962 0.898232
vt 0.473842 0.898232
vt 0.430576 0.937450
vt 0.413228 0.937450
vt 0.081102 0.993930
vt 0.123705 0.993930
vt 0.123705 0.985687
vt 0.081102 0.985687
vt 0.274476 0.960149
vt 0.274476 0.926570
vt 0.253411 0.926570
vt 0.253411 0.960149
vt 0.124179 0.993930
vt 0.166782 0.993930
vt 0.166782 0.985687
vt 0.124179 0.985687
vt 0.630474 0.881695
vt 0.536193 0.881695
vt 0.536193 0.997211
vt 0.630474 0.997211
vt 0.473842 0.992393
vt 0.430576 0.953175
vt 0.369962 0.992393
vt 0.413228 0.953175
vt 0.845968 0.884864
vt 0.873835 0.883340
vt 0.887034 0.898820
vt 0.819438 0.900097
vt 0.654044 0.881695
vt 0.512623 0.881695
vt 0.512623 0.997211
vt 0.654044 0.997211
vt 0.763905 0.902105
vt 0.833902 0.900008
vt 0.867402 0.912636
vt 0.763224 0.912824
vt 0.789247 0.887664
vt 0.818845 0.885614
vt 0.705782 0.887138
vt 0.730698 0.885340
vt 0.741387 0.900527
vt 0.678671 0.902231
vt 0.908418 0.888583
vt 0.940354 0.887252
vt 0.957204 0.902787
vt 0.883369 0.903805
vt 0.672718 0.913662
vt 0.775608 0.913300
vt 0.785832 0.930299
vt 0.697915 0.930416
vt 0.990851 0.915670
vt 0.884762 0.915663
vt 0.921342 0.911693
vt 0.816275 0.911836
vt 0.842853 0.928804
vt 0.929075 0.928501
vt 0.899750 0.949528
vt 0.872475 0.950501
vt 0.994620 0.932314
vt 0.912895 0.932761
vt 0.872975 0.929760
vt 0.790202 0.929392
vt 0.875000 0.976676
vt 0.842321 0.951228
vt 0.817155 0.951683
vt 0.758864 0.951498
vt 0.729730 0.952259
vt 0.962242 0.953296
vt 0.938376 0.954412
vt 0.817708 0.978584
vt 0.734375 0.978618
vt 0.937500 0.980582
vt 1.002764 -0.002764
vt 1.002764 0.552792
vt 0.002764 0.552792
vt 0.002764 -0.002764
vt 1.002764 0.552792
vt 0.002764 -0.002764
vt 1.000000 1.000000
vt -0.000000 1.000000
vt 0.000000 0.000000
vt 1.000000 0.000000
vt 1.000000 1.000000
vt 0.000000 1.000000
vt 0.000000 0.000000
vt 1.000000 0.000000
s 0
g candle_candle
usemtl candle
f 1/1/1 3/2/1 7/3/1 5/4/1
f 17/5/2 16/6/2 14/7/2 20/8/2
f 5/9/2 7/10/2 18/11/2 19/12/2
f 14/13/3 16/14/3 11/15/3 10/16/3
f 3/17/4 1/18/4 23/19/4 21/20/4
f 24/21/4 10/22/4 11/23/4 22/24/4
f 22/25/1 17/26/1 25/27/1 28/28/1
f 7/29/5 3/30/5 21/31/5 18/32/5
f 17/33/5 22/34/5 11/35/5 16/36/5
f 2/37/4 4/38/4 8/39/4 6/40/4
f 18/41/1 15/42/1 13/43/1 19/44/1
f 6/45/1 8/46/1 21/47/1 23/48/1
f 13/49/2 15/50/2 12/51/2 9/52/2
f 4/53/3 2/54/3 24/55/3 22/56/3
f 20/57/3 9/58/3 12/59/3 17/60/3
f 13/61/6 9/62/6 20/63/6 19/64/6
f 2/65/6 6/66/6 23/67/6 24/68/6
f 21/69/5 8/70/5 4/71/5 22/72/5
f 17/73/5 12/74/5 15/75/5 18/76/5
f 1/77/6 5/78/6 19/79/6 23/80/6
f 24/81/6 23/82/6 19/83/6 20/84/6
f 14/85/6 10/86/6 24/87/6 20/88/6
f 27/89/5 28/90/5 32/91/5 31/92/5
f 17/93/4 18/94/4 26/95/4 25/96/4
f 18/97/3 21/98/3 27/99/3 26/100/3
f 21/101/2 22/102/2 28/103/2 27/104/2
f 29/105/2 30/106/2 34/107/2 33/108/2
f 28/90/5 25/109/5 29/110/5 32/91/5
f 25/109/5 26/111/5 30/112/5 29/110/5
f 26/111/5 27/89/5 31/92/5 30/112/5
f 35/113/7 36/114/7 40/115/7 39/116/7
f 30/117/1 31/118/1 35/119/1 34/120/1
f 31/106/4 32/105/4 36/108/4 35/107/4
f 32/118/3 29/117/3 33/120/3 36/119/3
f 40/121/8 37/122/8 41/123/8 44/124/8
f 36/125/9 33/126/9 37/122/9 40/121/9
f 33/127/10 34/128/10 38/129/10 37/130/10
f 34/131/11 35/132/11 39/133/11 38/134/11
f 41/135/12 42/136/12 46/137/12 45/138/12
f 37/130/13 38/129/13 42/136/13 41/135/13
f 38/134/14 39/133/14 43/139/14 42/140/14
f 39/116/15 40/115/15 44/141/15 43/142/15
f 47/143/16 48/144/16 52/145/16 51/146/16
f 42/140/17 43/139/17 47/147/17 46/148/17
f 43/142/18 44/141/18 48/144/18 47/143/18
f 44/124/19 41/123/19 45/149/19 48/150/19
f 51/146/20 52/145/20 53/151/20
f 48/150/21 45/149/21 49/152/21 52/153/21
f 45/138/22 46/137/22 50/154/22 49/155/22
f 46/148/23 47/147/23 51/156/23 50/157/23
f 52/153/24 49/152/24 53/158/24
f 49/155/25 50/154/25 53/159/25
f 50/157/26 51/156/26 53/160/26
g candle_pie_top
usemtl pie_top
f 61/171/5 57/172/5 55/173/5 59/174/5
g candle_pie_bottom
usemtl pie_bottom
f 56/167/6 60/168/6 58/169/6 54/170/6
g candle_pie_side
usemtl pie_side
f 54/161/1 55/162/1 57/163/1 56/164/1
f 56/161/2 57/162/2 61/163/2 60/164/2
f 60/161/3 61/165/3 59/163/3 58/166/3
f 58/161/4 59/165/4 55/163/4 54/166/4
