# Blender v3.2.2 OBJ File: 'candles_3d_unlit_2.blend'
# www.blender.org
mtllib candles_3d_unlit_2.mtl
o Cube.001
v -0.345751 -0.500000 -0.077090
v -0.069853 -0.500000 -0.021910
v -0.345751 -0.278577 -0.077090
v -0.069853 -0.278577 -0.021910
v -0.345751 -0.500000 -0.297809
v -0.290572 -0.500000 -0.021910
v -0.345751 -0.278577 -0.297809
v -0.290572 -0.278577 -0.021910
v -0.069853 -0.500000 -0.352988
v -0.014673 -0.500000 -0.077090
v -0.014673 -0.278577 -0.077090
v -0.069853 -0.278577 -0.352988
v -0.290572 -0.500000 -0.352988
v -0.014673 -0.500000 -0.297809
v -0.290572 -0.278577 -0.352988
v -0.014673 -0.278577 -0.297809
v -0.069853 -0.278577 -0.297809
v -0.290572 -0.278577 -0.297809
v -0.290572 -0.500000 -0.297809
v -0.069853 -0.500000 -0.297809
v -0.290572 -0.278577 -0.077090
v -0.069853 -0.278577 -0.077090
v -0.290572 -0.500000 -0.077090
v -0.069853 -0.500000 -0.077090
v -0.069853 -0.323151 -0.297809
v -0.290572 -0.323151 -0.297809
v -0.290572 -0.323151 -0.077090
v -0.069853 -0.323151 -0.077090
v -0.161783 -0.323151 -0.205879
v -0.198642 -0.323151 -0.205879
v -0.198642 -0.323151 -0.169020
v -0.161783 -0.323151 -0.169020
v -0.161783 -0.269648 -0.205879
v -0.198642 -0.269648 -0.205879
v -0.198642 -0.269648 -0.169020
v -0.161783 -0.269648 -0.169020
vt 0.123705 0.892789
vt 0.038024 0.892789
vt 0.038024 0.926367
vt 0.123705 0.926367
vt 0.123705 0.968594
vt 0.123705 0.960351
vt 0.038024 0.960351
vt 0.038024 0.968594
vt 0.188321 0.926367
vt 0.188321 0.892789
vt 0.167256 0.892789
vt 0.167256 0.926367
vt 0.123705 0.926570
vt 0.038024 0.926570
vt 0.038024 0.960149
vt 0.123705 0.960149
vt 0.124179 0.968594
vt 0.209860 0.968594
vt 0.209860 0.960351
vt 0.124179 0.960351
vt 0.209860 0.892789
vt 0.188795 0.892789
vt 0.188795 0.926367
vt 0.209860 0.926367
vt 0.038024 0.977039
vt 0.123705 0.977039
vt 0.123705 0.968797
vt 0.038024 0.968797
vt 0.231398 0.926367
vt 0.231398 0.892789
vt 0.210334 0.892789
vt 0.210334 0.926367
vt 0.124179 0.977039
vt 0.209860 0.977039
vt 0.209860 0.968797
vt 0.124179 0.968797
vt 0.166782 0.926367
vt 0.166782 0.892789
vt 0.124179 0.892789
vt 0.124179 0.926367
vt 0.123705 0.985484
vt 0.123705 0.977242
vt 0.038024 0.977242
vt 0.038024 0.985484
vt 0.231398 0.960149
vt 0.231398 0.926570
vt 0.210334 0.926570
vt 0.210334 0.960149
vt 0.124179 0.943258
vt 0.209860 0.943258
vt 0.209860 0.926570
vt 0.124179 0.926570
vt 0.252937 0.926367
vt 0.252937 0.892789
vt 0.231873 0.892789
vt 0.231873 0.926367
vt 0.209860 0.985484
vt 0.209860 0.977242
vt 0.124179 0.977242
vt 0.124179 0.985484
vt 0.231398 0.977039
vt 0.231398 0.960351
vt 0.210334 0.960351
vt 0.210334 0.977039
vt 0.231873 0.968594
vt 0.274476 0.968594
vt 0.274476 0.960351
vt 0.231873 0.960351
vt 0.252937 0.968797
vt 0.231873 0.968797
vt 0.231873 0.985484
vt 0.252937 0.985484
vt 0.080627 0.993930
vt 0.080627 0.985687
vt 0.038024 0.985687
vt 0.038024 0.993930
vt 0.252937 0.960149
vt 0.252937 0.926570
vt 0.231873 0.926570
vt 0.231873 0.960149
vt 0.209860 0.960149
vt 0.209860 0.943461
vt 0.124179 0.943461
vt 0.124179 0.960149
vt 0.274476 0.926367
vt 0.274476 0.892789
vt 0.253411 0.892789
vt 0.253411 0.926367
vt 0.369962 0.898232
vt 0.473842 0.898232
vt 0.430576 0.937450
vt 0.413228 0.937450
vt 0.081102 0.993930
vt 0.123705 0.993930
vt 0.123705 0.985687
vt 0.081102 0.985687
vt 0.274476 0.960149
vt 0.274476 0.926570
vt 0.253411 0.926570
vt 0.253411 0.960149
vt 0.124179 0.993930
vt 0.166782 0.993930
vt 0.166782 0.985687
vt 0.124179 0.985687
vt 0.630474 0.881695
vt 0.536193 0.881695
vt 0.536193 0.997211
vt 0.630474 0.997211
vt 0.473842 0.992393
vt 0.430576 0.953175
vt 0.369962 0.992393
vt 0.413228 0.953175
vt 0.654044 0.881695
vt 0.512623 0.881695
vt 0.512623 0.997211
vt 0.654044 0.997211
vt 0.536193 0.881695
vt 0.630474 0.881695
vt 0.630474 0.997211
vt 0.536193 0.997211
vt 0.512623 0.881695
vt 0.654044 0.881695
vt 0.654044 0.997211
vt 0.512623 0.997211
vn -1.0000 0.0000 0.0000
vn 0.0000 0.0000 -1.0000
vn 1.0000 0.0000 0.0000
vn 0.0000 0.0000 1.0000
vn 0.0000 1.0000 0.0000
vn 0.0000 -1.0000 0.0000
usemtl base
s off
f 1/1/1 3/2/1 7/3/1 5/4/1
f 17/5/2 16/6/2 14/7/2 20/8/2
f 5/9/2 7/10/2 18/11/2 19/12/2
f 14/13/3 16/14/3 11/15/3 10/16/3
f 3/17/4 1/18/4 23/19/4 21/20/4
f 24/21/4 10/22/4 11/23/4 22/24/4
f 22/25/1 17/26/1 25/27/1 28/28/1
f 7/29/5 3/30/5 21/31/5 18/32/5
f 17/33/5 22/34/5 11/35/5 16/36/5
f 2/37/4 4/38/4 8/39/4 6/40/4
f 18/41/1 15/42/1 13/43/1 19/44/1
f 6/45/1 8/46/1 21/47/1 23/48/1
f 13/49/2 15/50/2 12/51/2 9/52/2
f 4/53/3 2/54/3 24/55/3 22/56/3
f 20/57/3 9/58/3 12/59/3 17/60/3
f 13/61/6 9/62/6 20/63/6 19/64/6
f 2/65/6 6/66/6 23/67/6 24/68/6
f 21/69/5 8/70/5 4/71/5 22/72/5
f 17/73/5 12/74/5 15/75/5 18/76/5
f 1/77/6 5/78/6 19/79/6 23/80/6
f 24/81/6 23/82/6 19/83/6 20/84/6
f 14/85/6 10/86/6 24/87/6 20/88/6
f 27/89/5 28/90/5 32/91/5 31/92/5
f 17/93/4 18/94/4 26/95/4 25/96/4
f 18/97/3 21/98/3 27/99/3 26/100/3
f 21/101/2 22/102/2 28/103/2 27/104/2
f 29/105/2 30/106/2 34/107/2 33/108/2
f 28/90/5 25/109/5 29/110/5 32/91/5
f 25/109/5 26/111/5 30/112/5 29/110/5
f 26/111/5 27/89/5 31/92/5 30/112/5
f 30/113/1 31/114/1 35/115/1 34/116/1
f 31/117/4 32/118/4 36/119/4 35/120/4
f 32/121/3 29/122/3 33/123/3 36/124/3
f 33/108/5 34/107/5 35/115/5 36/119/5
o Cube.002
v 0.137871 -0.500000 0.196574
v 0.319861 -0.500000 0.232972
v 0.137871 -0.062072 0.196574
v 0.319861 -0.062072 0.232972
v 0.137871 -0.500000 0.050981
v 0.174269 -0.500000 0.232972
v 0.137871 -0.062072 0.050981
v 0.174269 -0.062072 0.232972
v 0.319861 -0.500000 0.014583
v 0.356260 -0.500000 0.196574
v 0.356260 -0.062072 0.196574
v 0.319861 -0.062072 0.014583
v 0.174269 -0.500000 0.014583
v 0.356260 -0.500000 0.050981
v 0.174269 -0.062072 0.014583
v 0.356260 -0.062072 0.050981
v 0.319861 -0.062072 0.050981
v 0.174269 -0.062072 0.050981
v 0.174269 -0.500000 0.050981
v 0.319861 -0.500000 0.050981
v 0.174269 -0.062072 0.196574
v 0.319861 -0.062072 0.196574
v 0.174269 -0.500000 0.196574
v 0.319861 -0.500000 0.196574
v 0.319861 -0.106647 0.050981
v 0.174269 -0.106647 0.050981
v 0.174269 -0.106647 0.196574
v 0.319861 -0.106647 0.196574
v 0.259222 -0.106647 0.111621
v 0.234909 -0.106647 0.111621
v 0.234909 -0.106647 0.135934
v 0.259222 -0.106647 0.135934
v 0.259222 -0.031448 0.111621
v 0.234909 -0.031448 0.111621
v 0.234909 -0.031448 0.135934
v 0.259222 -0.031448 0.135934
vt 0.123705 0.892789
vt 0.038024 0.892789
vt 0.038024 0.926367
vt 0.123705 0.926367
vt 0.123705 0.968594
vt 0.123705 0.960351
vt 0.038024 0.960351
vt 0.038024 0.968594
vt 0.188321 0.926367
vt 0.188321 0.892789
vt 0.167256 0.892789
vt 0.167256 0.926367
vt 0.123705 0.926570
vt 0.038024 0.926570
vt 0.038024 0.960149
vt 0.123705 0.960149
vt 0.124179 0.968594
vt 0.209860 0.968594
vt 0.209860 0.960351
vt 0.124179 0.960351
vt 0.209860 0.892789
vt 0.188795 0.892789
vt 0.188795 0.926367
vt 0.209860 0.926367
vt 0.038024 0.977039
vt 0.123705 0.977039
vt 0.123705 0.968797
vt 0.038024 0.968797
vt 0.231398 0.926367
vt 0.231398 0.892789
vt 0.210334 0.892789
vt 0.210334 0.926367
vt 0.124179 0.977039
vt 0.209860 0.977039
vt 0.209860 0.968797
vt 0.124179 0.968797
vt 0.166782 0.926367
vt 0.166782 0.892789
vt 0.124179 0.892789
vt 0.124179 0.926367
vt 0.123705 0.985484
vt 0.123705 0.977242
vt 0.038024 0.977242
vt 0.038024 0.985484
vt 0.231398 0.960149
vt 0.231398 0.926570
vt 0.210334 0.926570
vt 0.210334 0.960149
vt 0.124179 0.943258
vt 0.209860 0.943258
vt 0.209860 0.926570
vt 0.124179 0.926570
vt 0.252937 0.926367
vt 0.252937 0.892789
vt 0.231873 0.892789
vt 0.231873 0.926367
vt 0.209860 0.985484
vt 0.209860 0.977242
vt 0.124179 0.977242
vt 0.124179 0.985484
vt 0.231398 0.977039
vt 0.231398 0.960351
vt 0.210334 0.960351
vt 0.210334 0.977039
vt 0.231873 0.968594
vt 0.274476 0.968594
vt 0.274476 0.960351
vt 0.231873 0.960351
vt 0.252937 0.968797
vt 0.231873 0.968797
vt 0.231873 0.985484
vt 0.252937 0.985484
vt 0.080627 0.993930
vt 0.080627 0.985687
vt 0.038024 0.985687
vt 0.038024 0.993930
vt 0.252937 0.960149
vt 0.252937 0.926570
vt 0.231873 0.926570
vt 0.231873 0.960149
vt 0.209860 0.960149
vt 0.209860 0.943461
vt 0.124179 0.943461
vt 0.124179 0.960149
vt 0.274476 0.926367
vt 0.274476 0.892789
vt 0.253411 0.892789
vt 0.253411 0.926367
vt 0.369962 0.898232
vt 0.473842 0.898232
vt 0.430576 0.937450
vt 0.413228 0.937450
vt 0.081102 0.993930
vt 0.123705 0.993930
vt 0.123705 0.985687
vt 0.081102 0.985687
vt 0.274476 0.960149
vt 0.274476 0.926570
vt 0.253411 0.926570
vt 0.253411 0.960149
vt 0.124179 0.993930
vt 0.166782 0.993930
vt 0.166782 0.985687
vt 0.124179 0.985687
vt 0.630474 0.881695
vt 0.536193 0.881695
vt 0.536193 0.997211
vt 0.630474 0.997211
vt 0.473842 0.992393
vt 0.430576 0.953175
vt 0.369962 0.992393
vt 0.413228 0.953175
vt 0.654044 0.881695
vt 0.512623 0.881695
vt 0.512623 0.997211
vt 0.654044 0.997211
vt 0.536193 0.881695
vt 0.630474 0.881695
vt 0.630474 0.997211
vt 0.536193 0.997211
vt 0.512623 0.881695
vt 0.654044 0.881695
vt 0.654044 0.997211
vt 0.512623 0.997211
vn -1.0000 0.0000 0.0000
vn 0.0000 0.0000 -1.0000
vn 1.0000 0.0000 0.0000
vn 0.0000 0.0000 1.0000
vn 0.0000 1.0000 0.0000
vn 0.0000 -1.0000 0.0000
usemtl base
s off
f 37/125/7 39/126/7 43/127/7 41/128/7
f 53/129/8 52/130/8 50/131/8 56/132/8
f 41/133/8 43/134/8 54/135/8 55/136/8
f 50/137/9 52/138/9 47/139/9 46/140/9
f 39/141/10 37/142/10 59/143/10 57/144/10
f 60/145/10 46/146/10 47/147/10 58/148/10
f 58/149/7 53/150/7 61/151/7 64/152/7
f 43/153/11 39/154/11 57/155/11 54/156/11
f 53/157/11 58/158/11 47/159/11 52/160/11
f 38/161/10 40/162/10 44/163/10 42/164/10
f 54/165/7 51/166/7 49/167/7 55/168/7
f 42/169/7 44/170/7 57/171/7 59/172/7
f 49/173/8 51/174/8 48/175/8 45/176/8
f 40/177/9 38/178/9 60/179/9 58/180/9
f 56/181/9 45/182/9 48/183/9 53/184/9
f 49/185/12 45/186/12 56/187/12 55/188/12
f 38/189/12 42/190/12 59/191/12 60/192/12
f 57/193/11 44/194/11 40/195/11 58/196/11
f 53/197/11 48/198/11 51/199/11 54/200/11
f 37/201/12 41/202/12 55/203/12 59/204/12
f 60/205/12 59/206/12 55/207/12 56/208/12
f 50/209/12 46/210/12 60/211/12 56/212/12
f 63/213/11 64/214/11 68/215/11 67/216/11
f 53/217/10 54/218/10 62/219/10 61/220/10
f 54/221/9 57/222/9 63/223/9 62/224/9
f 57/225/8 58/226/8 64/227/8 63/228/8
f 65/229/8 66/230/8 70/231/8 69/232/8
f 64/214/11 61/233/11 65/234/11 68/215/11
f 61/233/11 62/235/11 66/236/11 65/234/11
f 62/235/11 63/213/11 67/216/11 66/236/11
f 66/237/7 67/238/7 71/239/7 70/240/7
f 67/241/10 68/242/10 72/243/10 71/244/10
f 68/245/9 65/246/9 69/247/9 72/248/9
f 69/232/11 70/231/11 71/239/11 72/243/11
